<svg width="53" height="73" viewBox="0 0 53 73" fill="none" xmlns="http://www.w3.org/2000/svg">
<path d="M44.0679 41.593C44.2211 41.5546 46.0411 40.9222 48.0909 40.1939C50.1408 39.4465 51.8841 38.8524 51.9799 38.8524C52.0566 38.8333 52.114 38.9099 52.114 39.0249C52.114 39.1399 51.6734 40.1365 51.137 41.2863C50.6006 42.417 49.8151 44.046 49.4128 44.9276C49.0105 45.79 48.34 47.2082 47.9185 48.0898C47.5162 48.9522 46.884 50.3129 46.5009 51.0986C46.1369 51.8844 45.4855 53.2642 45.064 54.165C44.6426 55.0657 43.8954 56.6564 43.4165 57.7104C42.9184 58.7645 42.4011 59.8569 42.2479 60.1635C42.0946 60.451 41.9988 60.7576 42.0563 60.8726C42.1138 60.9876 42.0946 61.0451 42.018 61.0259C41.9222 61.0068 41.4816 61.1792 41.0026 61.3901C40.5237 61.6009 34.5657 64.2073 27.7456 67.1778C20.9064 70.1291 15.2932 72.5439 15.2358 72.5247C15.1974 72.4864 17.0557 67.5036 19.3738 61.4476C21.711 55.3915 23.6268 50.2362 23.6268 50.0063C23.6459 49.7571 23.7225 49.5655 23.8183 49.5655C23.895 49.5655 23.9141 49.4888 23.8566 49.3738C23.7992 49.2588 23.8183 49.2013 23.9141 49.2397C23.9907 49.2588 24.259 49.0672 24.5272 48.7989C24.7954 48.5306 24.9869 48.2623 24.9486 48.1856C24.9295 48.0898 24.9869 48.0706 25.1019 48.1281C25.2168 48.1856 29.2399 46.8249 34.0485 45.1384C38.8762 43.4328 43.0333 41.9571 43.3016 41.8421C43.5698 41.7463 43.9146 41.6121 44.0679 41.593Z" fill="#E8F7FF"/>
<path fill-rule="evenodd" clip-rule="evenodd" d="M31.3281 0.00571163C31.8645 0.0632056 34.6615 0.523157 37.5543 1.05977C40.4471 1.59638 42.8801 2.03717 42.9759 2.03717C43.0525 2.03717 43.11 2.09466 43.11 2.19048C43.11 2.26714 42.7077 2.57378 42.2096 2.86125C41.7115 3.14872 41.1176 3.49368 40.926 3.62783C40.7153 3.76198 39.9681 4.43275 39.2402 5.161C38.5313 5.8701 37.9374 6.48337 37.9374 6.54086C37.9374 6.59835 37.7267 6.92415 37.4777 7.26912C37.2286 7.59492 36.6922 8.53398 36.309 9.31973C35.9067 10.1055 35.3895 11.5237 35.1404 12.4819C34.7764 13.9384 34.719 14.5517 34.7764 16.4107C34.8148 17.618 34.8722 18.7871 34.9105 18.9979C34.968 19.3429 34.8531 19.3812 34.0101 19.4003C33.2055 19.4195 33.1864 19.4195 34.6807 19.2854L34.5274 18.3846C34.4508 17.8672 34.4124 16.6406 34.4316 15.6441C34.4508 14.5325 34.6232 13.2293 34.8722 12.2903C35.083 11.447 35.6002 10.0672 36.0025 9.22391C36.4048 8.38067 37.2478 7.03914 37.88 6.25339C38.5122 5.46764 39.3934 4.50941 39.8723 4.14528C40.3321 3.76198 41.0793 3.20621 41.5391 2.89957C41.9797 2.57378 42.3245 2.30547 42.3054 2.28631C42.267 2.26714 39.8149 1.80719 36.8263 1.28974C32.4201 0.484828 31.3664 0.350675 31.1174 0.561487C30.8875 0.733969 30.7917 0.733969 30.6959 0.561487C30.6001 0.389005 30.1595 0.408169 28.8376 0.695639C27.8989 0.887286 26.5004 1.27058 24.4314 1.97967L25.1019 2.32463C25.4659 2.51628 25.6575 2.70793 25.5425 2.74626C25.4084 2.76542 25.0636 2.68876 24.7762 2.53545C24.3164 2.30547 24.1823 2.30547 23.8183 2.53545C23.5693 2.68876 23.3777 2.74626 23.3777 2.6696C23.3777 2.57378 23.5693 2.32464 23.7992 2.11382C24.0482 1.88385 24.6229 1.55805 25.1019 1.38557C25.5808 1.21308 26.9602 0.810627 28.1671 0.503993C29.6614 0.1207 30.6767 -0.0326177 31.3281 0.00571163V0.00571163ZM22.8413 2.9954C22.9179 2.9954 22.9946 3.05289 22.9946 3.14872C22.9946 3.22537 22.5922 3.66616 22.1133 4.14528C21.4619 4.77771 21.2895 4.87353 21.4619 4.52857C21.596 4.26027 21.9217 3.81948 22.1899 3.53201C22.4581 3.22537 22.7455 2.9954 22.8413 2.9954V2.9954ZM20.983 5.10351C21.0213 5.10351 20.983 5.25683 20.8872 5.44847C20.8106 5.62096 20.619 5.8701 20.4849 5.98508C20.3317 6.10007 19.8336 6.82833 19.3546 7.59492C18.8757 8.3615 18.4351 9.0131 18.3393 9.05143C18.2626 9.08976 18.2626 8.97477 18.3393 8.80229C18.3967 8.61064 18.7416 8.0357 19.0673 7.49909C19.4121 6.98165 19.8719 6.33005 20.0826 6.06174C20.3125 5.79344 20.5807 5.46764 20.6956 5.35265C20.8106 5.2185 20.9447 5.10351 20.983 5.10351ZM17.7262 10.1438C17.7262 10.2013 17.5538 10.7954 17.3048 11.4662C17.0749 12.1369 16.7492 13.4401 16.5768 14.3984C16.3469 15.5866 16.2703 16.6406 16.3469 17.7522C16.4044 18.6529 16.5959 19.8986 16.7683 20.5311C16.9599 21.1635 17.1707 21.7768 17.2664 21.8726C17.3814 21.9876 17.7454 21.8917 18.3393 21.5468C18.8565 21.2785 19.8719 20.876 20.5999 20.6652C21.3278 20.4544 22.803 20.1861 23.8566 20.0711C24.9103 19.9561 26.0981 19.8028 26.4812 19.7645C26.8835 19.707 27.2475 19.7645 27.305 19.8603C27.3625 19.9561 27.2858 20.0903 27.1517 20.1094C26.9985 20.1669 27.3625 21.0485 28.2054 22.7542C28.9142 24.1723 29.6614 25.9738 29.8721 26.7596C30.0828 27.5453 30.3319 28.6952 30.4085 29.3085C30.4852 29.9217 30.5043 30.4583 30.4085 30.5158C30.3319 30.5542 30.2169 30.19 30.1595 29.6726C30.102 29.1743 29.8721 28.0819 29.6805 27.2387C29.4698 26.3571 28.7801 24.6323 28.0905 23.2141C27.4199 21.8343 26.8069 20.5694 26.7494 20.3777C26.6536 20.1094 26.4621 20.0711 25.5233 20.1669C24.9295 20.2244 23.78 20.3586 22.9946 20.4736C22.2091 20.5694 20.9064 20.876 20.1209 21.1252C19.3355 21.3743 18.3967 21.7576 18.0519 21.9684C17.7262 22.1792 17.4005 22.3517 17.3431 22.3517C17.2856 22.3517 17.1132 22.0642 16.9408 21.7193C16.7683 21.3935 16.6151 21.0868 16.5959 21.0677C16.5959 21.0293 15.9254 21.2402 15.14 21.4893C14.3545 21.7576 13.6648 21.9876 13.6074 22.0067C13.5499 22.0067 13.3008 22.1026 13.0326 22.1984C12.7644 22.2942 11.9981 22.6008 10.0632 23.4249L9.90995 24.364C9.83332 24.9006 9.81416 25.9738 9.87163 26.7596C9.9291 27.5453 10.1207 28.7144 10.2739 29.3468C10.4464 29.9792 10.8487 31.0141 11.1743 31.6466C11.4809 32.279 12.228 33.5247 12.8027 34.4254C13.3966 35.3262 14.0671 36.3611 14.297 36.7252C14.5269 37.0893 14.8909 37.9134 15.1016 38.5458C15.3124 39.1783 15.5231 40.0215 15.5997 40.4048C15.6764 40.8456 15.6381 41.1331 15.5231 41.1331C15.4082 41.1331 15.2741 40.7306 15.2166 40.2132C15.1591 39.7149 14.8909 38.7566 14.6035 38.0667C14.3353 37.3768 13.4541 35.8245 12.6303 34.6171C11.8257 33.4097 10.9445 31.934 10.6762 31.3591C10.4272 30.7842 10.0632 29.6918 9.87163 28.9635C9.62258 27.9286 9.56511 27.1237 9.64174 25.418C9.69921 23.7124 9.83332 22.8883 10.2356 21.7768C10.5038 20.991 10.8487 20.2436 10.9828 20.1478C11.136 20.0519 12.343 19.6495 16.0595 18.6146V16.8898C16.0787 15.9315 16.1745 14.7242 16.2894 14.2067C16.4044 13.6701 16.6726 12.6927 16.9025 12.0028C17.1132 11.3129 17.3814 10.6038 17.4963 10.4121C17.6113 10.2205 17.7071 10.1055 17.7262 10.1438V10.1438ZM29.6997 19.6112C29.7572 19.6495 29.7572 19.707 29.6997 19.7453C29.6422 19.7836 29.1441 19.8411 28.6077 19.8795C28.0521 19.9178 27.5924 19.8986 27.5924 19.822C27.5924 19.7261 28.0521 19.6495 28.5886 19.6303C29.1441 19.592 29.6422 19.592 29.6997 19.6303V19.6112ZM31.3664 19.4578C31.9603 19.4578 32.4009 19.4962 32.3626 19.5345C32.3243 19.5728 31.8262 19.6686 31.2706 19.7261C30.6576 19.8028 30.2744 19.7645 30.2744 19.6495C30.2744 19.5537 30.7725 19.4578 31.3664 19.4578ZM18.5117 24.8239C18.6075 24.8431 18.9906 25.1881 19.3546 25.6289C19.7186 26.0505 20.5807 26.7021 21.2704 27.0854C21.96 27.4495 22.8413 27.9478 23.2244 28.1969C23.7034 28.5036 24.0865 28.9635 24.3547 29.5768C24.6613 30.2475 24.7187 30.6117 24.6038 31.0141C24.508 31.3208 24.3547 31.5507 24.2398 31.5507C24.1248 31.5316 24.0865 31.2058 24.1248 30.8033C24.144 30.42 24.0482 29.8451 23.895 29.5193C23.7417 29.1935 23.2819 28.7144 22.8796 28.4461C22.4581 28.1778 21.6535 27.7178 21.0788 27.4112C20.5041 27.1237 19.8144 26.7021 19.1056 26.0696L19.2397 26.7021C19.2971 27.0279 19.5653 27.6795 19.8336 28.1394C20.0826 28.5802 20.734 29.4618 21.2704 30.0942C21.8068 30.7267 22.3815 31.6274 22.5348 32.1065C22.7072 32.5856 22.8796 33.1031 22.9371 33.2564C23.0137 33.4672 23.0712 33.4289 23.2053 33.1222C23.3011 32.8731 23.531 32.6814 23.7034 32.6814C23.895 32.6814 25.2935 32.8156 26.8261 32.9689C28.3587 33.1222 29.8146 33.2564 30.0828 33.2564C30.5618 33.2564 30.5618 33.2372 30.4085 32.2023C30.3319 31.5316 30.351 31.1483 30.466 31.1483C30.5809 31.1483 30.6576 31.5507 30.6576 32.0682C30.6576 32.5665 30.7534 33.0839 30.8875 33.2181C31.0216 33.3522 31.3664 33.448 31.6538 33.448C31.9603 33.448 32.1902 33.5247 32.1902 33.6397C32.1902 33.7547 31.9603 33.793 31.6538 33.7355C31.3664 33.6972 29.6231 33.5247 27.7839 33.3522C25.9448 33.1797 24.2398 33.0072 23.9907 32.9689C23.6268 32.8923 23.5501 32.9689 23.4543 33.6014C23.3969 33.9846 23.1861 35.1345 22.9754 36.1311C22.7838 37.1276 22.3432 38.8908 22.0175 40.0598C21.6918 41.2289 21.1554 42.8196 20.8489 43.6053C20.5424 44.3911 19.9868 45.7326 19.6228 46.5758C19.2397 47.4191 18.4542 48.9714 17.8795 50.0255C17.2856 51.0795 16.3852 52.536 15.8871 53.2835C15.389 54.0309 14.4886 55.0849 13.9139 55.6407C13.32 56.1773 12.8985 56.6756 12.9752 56.7139C13.0709 56.7714 14.412 57.0589 16.002 57.3655C17.573 57.6913 19.2014 57.998 19.5845 58.0555C20.2167 58.1513 20.3317 58.1129 20.4849 57.7488C20.5615 57.4997 20.6956 57.1356 20.7723 56.9247C20.8681 56.5989 20.7723 56.5031 20.0826 56.3115C19.6228 56.1965 18.7224 56.024 18.0519 55.9282C17.4005 55.8515 16.8641 55.7174 16.8641 55.6407C16.8641 55.5449 17.0749 55.2574 17.3239 54.9699C17.573 54.6633 18.1668 53.8392 18.6458 53.0918C19.1247 52.3444 20.0443 50.6962 20.6765 49.4122C21.5386 47.6874 21.9217 47.0741 22.1325 47.1508C22.2857 47.2083 22.7263 47.0741 23.0903 46.8633C23.4543 46.6525 23.7609 46.5183 23.7609 46.5758C23.7609 46.6333 23.2819 46.9974 22.688 47.3999C21.8834 47.9365 21.5194 48.339 21.1746 49.0672C20.9255 49.6038 20.2167 50.8495 19.6037 51.8461C18.9906 52.8427 18.2435 54.0117 17.9561 54.4333C17.6688 54.855 17.4389 55.2766 17.4389 55.3916C17.4389 55.5066 18.2435 55.7174 19.2014 55.8898C20.1784 56.0623 21.0022 56.1965 21.0213 56.1773C21.0596 56.1582 21.5961 54.7783 22.2474 53.0918C22.8796 51.4053 23.4926 49.9488 23.6076 49.8338C23.7353 49.7061 23.7545 49.8019 23.6651 50.1213C23.5884 50.3896 21.6344 55.5066 19.3355 61.5243C17.0366 67.542 15.1974 72.4673 15.2357 72.5056C15.2932 72.5248 21.2129 69.995 28.4161 66.8712C38.0715 62.6741 41.5965 61.0643 41.903 60.7002C42.1521 60.4127 42.3437 60.2594 42.3437 60.3744C42.3437 60.4894 42.2479 60.681 42.1138 60.8152C41.9797 60.9302 41.9605 61.0451 42.0755 61.0451C42.1713 61.0451 41.9797 61.1793 41.6732 61.3518C41.3666 61.5243 35.5427 64.0732 28.7418 67.0245C21.9409 69.9759 16.0404 72.5631 15.6189 72.7547C15.1974 72.9464 14.7951 73.0614 14.7376 72.9656C14.661 72.8889 11.3659 66.2579 7.40031 58.2279C3.4347 50.1788 0.254543 43.5478 0.312016 43.4712C0.388646 43.3753 1.82546 42.9154 3.53048 42.4171C5.21635 41.8996 6.80642 41.4972 7.03631 41.4972C7.28536 41.4972 7.72599 41.6313 8.05166 41.7847C8.37734 41.938 8.8946 42.5321 9.87163 44.1419L12.0747 43.3753C13.2817 42.9537 14.5652 42.4938 14.8909 42.3404C15.389 42.1296 15.5423 42.1296 15.6381 42.3213C15.6955 42.4363 15.5806 43.2412 15.3698 44.0844C15.1591 44.9277 15.0059 45.6368 15.025 45.6751C15.025 45.7134 16.1553 45.5218 17.5346 45.2535C18.8948 44.9852 20.0826 44.6594 20.1592 44.5252C20.255 44.3911 20.4849 43.797 20.7148 43.222C20.9255 42.6471 21.4045 41.1714 21.7493 39.964C22.0941 38.7566 22.4198 37.4343 22.6114 36.3227L21.3662 36.2844C20.5999 36.2461 20.0251 36.1119 19.8336 35.9394C19.6611 35.7861 19.5079 35.4028 19.5079 35.077C19.5079 34.6746 19.6611 34.3679 20.0443 34.0421C20.5041 33.678 20.7723 33.6014 22.4581 33.7355L22.3815 33.0647C22.324 32.7006 22.0558 32.0107 21.7685 31.5316C21.5003 31.0525 20.8297 30.1517 20.2933 29.5193C19.7761 28.8868 19.163 27.8903 18.9523 27.3153C18.7224 26.7404 18.4925 25.9355 18.4351 25.5522C18.3776 25.1497 18.4159 24.8239 18.5117 24.8239V24.8239ZM35.7726 33.7738C36.1749 33.8313 36.5389 33.908 36.5964 33.9463C36.6539 33.9846 36.6539 34.0613 36.5964 34.0996C36.5389 34.1571 36.1366 34.138 35.696 34.0613C35.2554 33.9846 34.9297 33.8697 34.968 33.793C35.0255 33.7163 35.3703 33.7163 35.7726 33.7738V33.7738ZM38.1482 33.9846C38.7229 34.023 39.221 34.0996 39.2785 34.138C39.3359 34.1763 39.3359 34.253 39.2785 34.3104C39.221 34.3488 38.7229 34.3296 38.1673 34.253C37.6118 34.1763 37.152 34.0613 37.1328 34.0038C37.1137 33.9463 37.5734 33.9272 38.1482 33.9846V33.9846ZM41.654 34.1763C42.5161 34.1955 42.9184 34.2913 42.9184 34.4638C42.9184 34.6362 42.7268 34.6554 42.2096 34.5596C41.8073 34.4829 41.1367 34.4063 40.7153 34.4063C40.2938 34.4063 40.0448 34.3296 40.1597 34.253C40.2938 34.1763 40.9643 34.138 41.654 34.1763V34.1763ZM47.2288 34.2338C47.3438 34.2146 47.4971 34.253 47.612 34.3104C47.7269 34.3871 47.5928 35.0962 47.2672 36.0928C46.999 37.0127 46.5392 38.3925 46.271 39.1591C46.0028 39.9065 45.8687 40.539 45.9836 40.539C46.0986 40.539 47.6312 40.0215 49.432 39.3891C51.2328 38.7566 52.6887 38.3159 52.6887 38.4308C52.6887 38.5458 52.5163 38.9675 52.3056 39.3891C52.0949 39.8107 51.8841 40.1365 51.8267 40.1173C51.7692 40.079 51.8267 39.8299 51.9608 39.5424C52.0949 39.2549 52.1715 38.9675 52.114 38.91C52.0565 38.8525 50.2557 39.4274 48.0909 40.1748C45.9261 40.9414 44.087 41.5739 43.9721 41.593C43.8571 41.6122 43.5123 41.7272 43.2058 41.8613C42.8992 41.9955 39.1827 43.3178 34.968 44.7935C30.7534 46.2692 26.7877 47.6682 26.1555 47.879C25.4276 48.1473 24.7762 48.5306 24.3739 48.9714C23.8375 49.5655 23.78 49.5847 23.895 49.1822C23.9907 48.9139 24.3739 48.5115 24.757 48.2623C25.1594 48.0132 26.6345 47.4191 28.0138 46.94C29.4123 46.4417 30.6001 46.0009 30.6576 45.9626C30.715 45.9242 30.6384 45.7134 30.5043 45.5218C30.3894 45.311 30.2744 45.1001 30.2744 45.0427C30.2744 44.9852 30.466 45.1576 31.1365 45.8476L43.1291 41.593L43.4931 40.3473C43.7039 39.6574 43.9337 38.7183 44.0487 38.2392C44.1445 37.7601 44.2211 37.3576 44.202 37.3576C44.1828 37.3385 42.995 37.2618 41.5774 37.2043C40.1597 37.1277 37.9183 36.9935 36.5964 36.8785C35.2745 36.7827 33.4163 36.6102 32.4775 36.5144C31.5388 36.3994 29.7572 36.1886 28.5502 36.0353C27.3433 35.8819 26.1555 35.7095 25.9065 35.652C25.5233 35.5561 25.4659 35.652 25.2935 36.8593C25.1785 37.5684 24.8145 39.1399 24.508 40.3473C24.1823 41.5547 23.5693 43.452 23.167 44.5635C22.7455 45.6751 22.324 46.6525 22.2091 46.7675C22.0941 46.8952 22.0367 46.8952 22.0367 46.7675C22.0367 46.6525 22.3049 45.9242 22.6306 45.1385C22.9562 44.3527 23.4926 42.7046 23.8566 41.4972C24.2015 40.2898 24.6229 38.565 24.7954 37.6643C24.9678 36.7635 25.1594 35.8436 25.1977 35.6136C25.2935 35.2112 25.3509 35.192 26.0023 35.3453C26.4046 35.4412 27.8031 35.6711 29.125 35.8245C30.4468 35.9969 32.9373 36.2652 34.6807 36.4377C36.424 36.591 39.3168 36.7827 41.1367 36.8593C42.9376 36.936 44.4702 37.0318 44.5276 37.0893C44.5659 37.1468 44.4318 37.9709 44.1828 38.91C43.9337 39.849 43.6847 40.8264 43.4931 41.4972L45.4089 40.8264L46.0794 38.8141C46.4242 37.7026 46.8265 36.4186 46.9606 35.9394C47.0756 35.4603 47.2097 34.962 47.248 34.8471C47.3055 34.6554 46.9606 34.5979 44.7384 34.5404L45.8878 34.4063C46.52 34.3296 47.1139 34.253 47.2288 34.2338V34.2338ZM51.4818 40.7881C51.5201 40.8648 51.2711 41.4972 50.9646 42.2254C50.6389 42.9345 50.3324 43.4712 50.2749 43.4137C50.2366 43.3562 50.4665 42.7237 50.7922 41.9955C51.137 41.2672 51.4435 40.7306 51.4818 40.7881V40.7881ZM49.9492 44.0461C49.9875 44.1228 49.7385 44.7552 49.432 45.4834C49.1063 46.1925 48.7998 46.7291 48.7423 46.6716C48.704 46.6142 48.9339 45.9817 49.2595 45.2535C49.6044 44.5252 49.9109 43.9886 49.9492 44.0461V44.0461ZM48.4166 47.3041C48.4549 47.3807 48.2059 48.0132 47.8994 48.7414C47.5737 49.4505 47.2672 49.9871 47.2097 49.9296C47.1714 49.8721 47.4013 49.2397 47.7269 48.5115C48.0718 47.7832 48.3783 47.2466 48.4166 47.3041ZM46.884 50.5812C46.9223 50.6387 46.6733 51.2712 46.3668 51.9994C46.0411 52.7085 45.7537 53.2451 45.6962 53.1876C45.6388 53.1301 45.8687 52.4977 46.2135 51.7694C46.5392 51.0412 46.8457 50.5046 46.884 50.5812ZM45.3514 53.8392C45.3897 53.8967 45.1407 54.5292 44.8342 55.2574C44.5085 55.9665 44.2211 56.5031 44.1636 56.4456C44.1062 56.3881 44.3361 55.7557 44.6809 55.0274C45.0066 54.2992 45.3131 53.7626 45.3514 53.8392ZM43.7996 57.1739C43.838 57.2889 43.6081 57.9213 43.3016 58.5537C42.995 59.1862 42.6885 59.6845 42.631 59.6653C42.5736 59.627 42.8035 59.0137 43.1291 58.2663C43.4548 57.5188 43.7613 57.0397 43.7996 57.1739Z" fill="#0640CD"/>
<path d="M25.7724 1.51971C26.5004 1.27057 27.8414 0.887279 28.7418 0.695633C29.6422 0.503986 30.4277 0.331504 30.5043 0.331504C30.6001 0.312339 30.6959 0.427327 30.715 0.56148C30.7725 0.753127 30.8491 0.753127 31.0982 0.56148C31.3664 0.350669 32.4009 0.484821 36.8263 1.28974C39.8149 1.80718 42.267 2.26713 42.3054 2.2863C42.3245 2.30546 41.9797 2.57377 41.5391 2.89957C41.0793 3.2062 40.2938 3.81947 39.7766 4.24109C39.2593 4.66272 38.4355 5.52513 37.9374 6.15756C37.4393 6.78999 36.7114 7.86321 36.3474 8.55314C35.9642 9.24307 35.447 10.4504 35.1787 11.2362C34.9105 12.0219 34.604 13.4401 34.4891 14.3984C34.3358 15.6249 34.3358 16.564 34.4699 17.6564C34.5849 18.4996 34.6615 19.2087 34.6232 19.2087C34.604 19.2279 32.4201 19.3812 29.7955 19.5537C27.1709 19.7453 24.3547 19.9753 23.5693 20.0711C22.7838 20.1861 21.4811 20.4352 20.6956 20.646C19.9102 20.8568 18.8565 21.2593 18.3393 21.5468C17.7454 21.8917 17.3814 21.9876 17.2664 21.8726C17.1707 21.7768 16.9599 21.1635 16.7683 20.5311C16.5959 19.8986 16.4044 18.6529 16.3469 17.7522C16.2703 16.6406 16.3469 15.5674 16.5576 14.3984C16.7492 13.4401 17.1898 11.9453 17.5538 11.0445C17.9178 10.1438 18.6266 8.76395 19.1056 7.9782C19.6037 7.19245 20.255 6.23422 20.5615 5.87009C20.8681 5.50596 21.6152 4.68188 22.2091 4.04945C22.803 3.41701 23.5118 2.76542 23.7609 2.59293C24.1823 2.30546 24.2973 2.30546 24.7762 2.53544C25.0636 2.68876 25.4084 2.76542 25.5425 2.74625C25.6574 2.70792 25.4659 2.51627 24.4314 1.97966L25.7724 1.51971Z" fill="white"/>
<path d="M23.0137 35.9586C23.2244 34.847 23.4352 33.7547 23.4926 33.5247V33.5055C23.5501 33.1797 23.7034 33.0839 24.2015 33.0839C24.5272 33.0839 26.0981 33.1989 27.6881 33.3522L27.8981 33.3727C29.4292 33.5222 31.2478 33.6997 31.9986 33.7547C32.7841 33.8122 33.8186 33.908 34.2975 33.9463C34.7764 34.0038 35.8109 34.0805 36.5964 34.138C37.3819 34.2146 38.5505 34.2913 39.1827 34.3296C39.8149 34.3679 41.8839 34.4638 43.7805 34.5213C45.6771 34.5787 47.248 34.6554 47.2672 34.6746C47.2863 34.6937 47.1331 35.3262 46.9223 36.0544C46.7308 36.7827 46.3093 38.1817 45.4089 40.8456L43.4931 41.5163L43.6272 41.0756C43.6847 40.8456 43.9337 39.8682 44.1828 38.9291C44.4318 37.9901 44.5659 37.166 44.5276 37.1085C44.4702 37.051 42.9376 36.9552 41.1367 36.8785C39.3168 36.8018 36.3665 36.6102 34.5849 36.4377C32.8032 36.2652 30.0254 35.9586 28.4545 35.7478C26.8644 35.537 25.5233 35.3262 25.4276 35.2687C25.3509 35.2303 25.2551 35.3837 25.1977 35.6136C25.1594 35.8628 24.9678 36.7827 24.7954 37.6834C24.6229 38.5842 24.2398 40.194 23.9333 41.2672C23.6267 42.3596 23.0712 44.0461 22.688 45.0043C22.3049 45.9817 21.4428 47.9173 20.7531 49.278C20.0634 50.6387 19.1056 52.3635 18.6458 53.111C18.1668 53.8584 17.573 54.6825 17.3239 54.9699C17.0749 55.2766 16.8641 55.5832 16.8641 55.6982C16.8641 55.8132 17.3622 55.9282 17.9561 55.9857C18.5692 56.0432 19.4696 56.1773 19.9677 56.2731C20.7914 56.4456 20.8681 56.5031 20.7723 56.8864C20.6956 57.1355 20.5615 57.5188 20.4849 57.7488C20.3317 58.1321 20.2167 58.1704 19.5845 58.0746C19.2014 58.0171 17.573 57.7105 16.002 57.3847C14.412 57.078 13.0709 56.7906 12.9752 56.7331C12.8985 56.6948 13.32 56.1965 13.9139 55.6407C14.4886 55.1041 15.389 54.05 15.8871 53.3026C16.3852 52.5552 17.2856 51.0987 17.8795 50.0446C18.4542 48.9906 19.2397 47.4382 19.6228 46.595C19.9868 45.7517 20.5424 44.4102 20.8489 43.6245C21.1554 42.8387 21.6918 41.248 22.0175 40.079C22.3432 38.91 22.803 37.0702 23.0137 35.9586Z" fill="white"/>
<path d="M21.1746 20.8185C22.0175 20.6077 23.3969 20.3586 24.2398 20.2628C25.0827 20.1861 25.964 20.0903 26.1939 20.0711C26.4621 20.0711 26.6728 20.1861 26.7494 20.3969C26.8069 20.5694 27.42 21.8534 28.0905 23.2141C28.761 24.594 29.4507 26.2613 29.6231 26.9512C29.7955 27.6411 30.0062 28.676 30.1212 29.251C30.217 29.8259 30.3319 30.9758 30.3894 31.7999C30.466 33.2372 30.4468 33.2756 30.0445 33.2756C29.7955 33.2756 28.3587 33.1414 26.8261 32.9881C25.2935 32.8348 23.895 32.7006 23.7034 32.7006C23.531 32.7006 23.3011 32.8923 23.2053 33.1414C23.0712 33.448 23.0137 33.4864 22.9371 33.2756C22.8796 33.1222 22.7072 32.6048 22.5348 32.1257C22.3815 31.6466 21.8068 30.7458 21.2704 30.1134C20.734 29.481 20.0826 28.5994 19.8336 28.1586C19.5654 27.6986 19.2972 27.047 19.1056 26.0888L19.5654 26.4913C19.8144 26.7212 20.5041 27.1429 21.0788 27.4303C21.6535 27.737 22.4581 28.1969 22.8796 28.4652C23.2819 28.7335 23.7417 29.2318 23.895 29.5384C24.0482 29.8642 24.144 30.4392 24.1249 30.8225C24.0865 31.2249 24.1249 31.5507 24.2398 31.5699C24.3547 31.5699 24.508 31.3399 24.6038 31.0333C24.7187 30.6308 24.6613 30.2667 24.3547 29.5959C24.0865 28.9827 23.7034 28.5227 23.2436 28.2161C22.8413 27.9669 21.9601 27.4687 21.2704 27.1045C20.5807 26.7212 19.7186 26.0696 19.3546 25.648C18.9906 25.2072 18.6075 24.8431 18.4925 24.8431C18.3776 24.8431 18.3584 25.1306 18.4159 25.5522C18.4925 25.9547 18.7224 26.7596 18.9523 27.3345C19.1631 27.9095 19.7761 28.906 20.2933 29.5384C20.8298 30.1709 21.5003 31.0716 21.7685 31.5507C22.0558 32.0299 22.324 32.7198 22.4581 33.7547L21.5194 33.678C20.7723 33.6205 20.5041 33.6972 20.0443 34.0613C19.6611 34.3871 19.5079 34.6937 19.5079 35.0962C19.5079 35.422 19.6611 35.8053 19.8336 35.9586C20.0251 36.1311 20.5999 36.2652 22.6114 36.3419L22.4965 37.0702C22.4198 37.4534 22.0942 38.7758 21.7493 39.9832C21.4045 41.1906 20.9255 42.6662 20.7148 43.2412C20.4849 43.8161 20.255 44.4102 20.1592 44.5444C20.0826 44.6785 18.914 45.0043 17.5347 45.2726C16.1553 45.5409 15.025 45.7326 15.025 45.6943C15.0059 45.6559 15.14 45.0427 15.3315 44.2952C15.5614 43.3753 15.6381 42.4746 15.5997 41.3822C15.5614 40.4815 15.3507 39.2741 15.1208 38.6033C14.9101 37.9326 14.5269 37.0893 14.297 36.7252C14.0671 36.3611 13.3966 35.3262 12.8027 34.4254C12.228 33.5247 11.4809 32.279 11.1744 31.6466C10.8487 31.0141 10.4464 29.9792 10.2739 29.3468C10.1207 28.7144 9.92911 27.5453 9.87164 26.7596C9.81417 25.9738 9.83332 24.9006 10.0632 23.4249L11.3085 22.8883C11.9981 22.6008 12.7836 22.275 13.071 22.1601C13.3775 22.0642 13.6265 21.9684 13.6457 21.9684C13.684 21.9684 14.3545 21.7576 15.14 21.4893C15.9254 21.2402 16.5959 21.0293 16.5959 21.0677C16.6151 21.0868 16.7684 21.3935 16.9408 21.7384C17.1132 22.0642 17.3048 22.3325 17.3814 22.2942C17.4772 22.2559 18.0136 22.0067 18.5883 21.7193C19.1631 21.451 20.3317 21.0485 21.1746 20.8185Z" fill="#2F7EFF"/>
<path d="M24.508 40.3665C24.8145 39.1591 25.1785 37.5876 25.3126 36.8785C25.5042 35.6903 25.5617 35.5945 25.9448 35.6711C26.1556 35.7286 27.3433 35.9011 28.5502 36.0544C29.7572 36.2077 31.5388 36.4186 32.4775 36.5335C33.4163 36.6294 35.2745 36.8019 36.5964 36.8977C37.9183 37.0127 40.1597 37.1468 41.5774 37.2235C42.995 37.281 44.1828 37.3576 44.202 37.3768C44.2211 37.3768 44.1445 37.7792 44.0487 38.2584C43.9338 38.7375 43.7039 39.6766 43.1291 41.6122L31.1365 45.8667L30.6959 45.4259C30.466 45.1768 30.2744 45.0427 30.2744 45.1576C30.2744 45.2726 30.3511 45.3876 30.466 45.4451C30.5809 45.5026 30.6576 45.6559 30.6576 45.7901C30.6576 45.9242 29.6039 46.3842 28.2246 46.8633C26.8644 47.3232 25.4084 47.8982 24.9486 48.1473C24.508 48.3965 24.0099 48.8756 23.8183 49.2397C23.6459 49.5655 22.9562 51.2712 22.2857 53.0152C21.6152 54.7591 21.0405 56.1773 21.0213 56.1965C21.0022 56.2156 20.1784 56.0815 19.2014 55.909C18.2435 55.7365 17.4389 55.5257 17.4389 55.4107C17.4389 55.2957 17.6688 54.8741 17.9561 54.4525C18.2435 54.0309 18.9906 52.8618 19.6037 51.8653C20.2167 50.8687 20.9255 49.623 21.1746 49.0864C21.5194 48.3581 21.8834 47.9557 22.688 47.4191C23.2819 47.0166 23.7609 46.6525 23.7609 46.595C23.7609 46.5375 23.416 46.6908 23.0137 46.94C22.5923 47.1699 22.1899 47.3041 22.0942 47.2274C22.0175 47.1508 22.0367 46.9783 22.1708 46.8441C22.2857 46.71 22.7455 45.6943 23.167 44.5827C23.5693 43.4712 24.1823 41.5739 24.508 40.3665Z" fill="#2F7EFF"/>
<path d="M27.7456 7.5183C26.3854 7.49914 25.2935 7.44165 25.2935 7.36499C25.2935 7.26916 26.3088 7.21167 27.5349 7.21167C28.7801 7.21167 30.1212 7.28833 30.5235 7.36499C30.9066 7.44165 31.2323 7.55663 31.2323 7.65246C31.2323 7.72912 31.0024 7.72912 30.6959 7.65246C30.4085 7.5758 29.0867 7.5183 27.7456 7.5183Z" fill="#0640CD"/>
<path d="M26.3471 9.81806C24.8528 9.81806 24.0099 9.76057 24.2398 9.66475C24.4505 9.58809 25.8682 9.53059 27.4008 9.56892C29.125 9.60725 30.3319 9.72224 30.5618 9.85639C30.8683 10.048 30.7534 10.0672 29.8913 9.95222C29.3165 9.85639 27.7265 9.7989 26.3471 9.81806Z" fill="#0640CD"/>
<path d="M27.9755 12.6736C26.8069 12.6736 25.8682 12.6161 25.8682 12.5394C25.8682 12.4436 26.8069 12.3861 27.9755 12.3861C29.1441 12.3861 30.0828 12.4436 30.0828 12.5394C30.0828 12.6161 29.125 12.6736 27.9755 12.6736Z" fill="#0640CD"/>
<path d="M23.8566 12.9227C23.3777 12.9419 23.3394 12.9036 23.6651 12.7694C23.8758 12.6736 24.3547 12.6161 24.7187 12.6161C25.3318 12.6161 25.3509 12.6353 24.9103 12.7694C24.6421 12.8461 24.1823 12.9227 23.8566 12.9227Z" fill="#0640CD"/>
<path d="M38.8762 40.1174C38.9528 39.8874 39.2402 39.5808 39.4892 39.4658C39.7383 39.3316 40.0639 39.2166 40.198 39.2166C40.313 39.2166 40.5812 39.4466 40.7728 39.7149C41.0601 40.1749 41.0793 40.2707 40.8111 40.7115C40.6578 40.9798 40.3321 41.2673 40.1022 41.3439C39.7574 41.4781 39.5658 41.4206 39.1827 41.0373C38.7995 40.654 38.7421 40.4623 38.8762 40.1174Z" fill="#0640CD"/>
<path d="M27.918 44.2186C27.9947 44.1228 28.2437 44.0078 28.4545 43.9503C28.6652 43.912 29.01 43.912 29.2208 43.9503C29.4315 44.0078 29.7572 44.1995 29.9487 44.3719C30.1212 44.5444 30.2361 44.6977 30.1786 44.7169C30.1212 44.7552 29.9296 44.6402 29.7572 44.4678C29.489 44.2186 29.2016 44.1803 28.5886 44.2761C28.0905 44.3528 27.8223 44.3336 27.918 44.2186Z" fill="#0640CD"/>
<path d="M25.7532 45.3493C25.8107 45.2343 26.1556 45.0235 26.5004 44.8702C26.8261 44.7169 27.1326 44.6019 27.1709 44.5827C27.2092 44.5827 27.1134 44.7169 26.9793 44.8702C26.8452 45.0427 26.4812 45.2535 26.1939 45.3493C25.849 45.4643 25.6958 45.4643 25.7532 45.3493Z" fill="#0640CD"/>
<path d="M24.0674 46.3267C24.1632 46.2117 24.508 46.0009 24.8145 45.8476C25.1402 45.6751 25.4084 45.541 25.4467 45.541C25.4659 45.541 25.485 45.5793 25.485 45.6368C25.485 45.6943 25.1977 45.9051 24.872 46.1159C24.5272 46.3267 24.1632 46.4992 24.0674 46.4992C23.9524 46.4992 23.9524 46.4417 24.0674 46.3267Z" fill="#0640CD"/>
<path d="M13.7989 20.4544C14.2204 19.8219 14.7185 19.2662 14.9101 19.2278C15.0825 19.1703 15.2549 19.132 15.2932 19.1129C15.3124 19.1129 15.2932 19.2662 15.2357 19.477C15.1783 19.6878 15.1974 19.8603 15.2741 19.8603C15.3698 19.8603 15.5423 19.6686 15.6955 19.4387C15.9637 19.0362 15.9829 19.0362 16.1553 19.4003C16.2702 19.6303 16.2511 19.8411 16.117 19.9561C16.002 20.0519 15.9063 20.2627 15.9063 20.3777C15.9063 20.5119 15.9829 20.5885 16.0978 20.531C16.1936 20.4735 16.2894 20.5119 16.2894 20.6269C16.2894 20.7227 16.117 20.7802 15.9063 20.7227C15.6764 20.6652 15.4848 20.7418 15.4273 20.9143C15.3698 21.0676 15.1591 21.2018 14.9484 21.2018C14.5844 21.2018 14.5844 21.1635 14.8526 20.7227C15.0059 20.4544 15.1208 20.2052 15.0825 20.1477C15.0633 20.0903 14.776 20.3969 14.4694 20.8185C14.1438 21.2593 13.7223 21.6426 13.5116 21.7001C13.3008 21.7576 13.1093 21.7576 13.0709 21.7001C13.0518 21.6426 13.3775 21.0676 13.7989 20.4544Z" fill="#2F7EFF"/>
<path d="M11.9981 21.0485C12.3813 20.4544 12.8027 19.8986 12.9177 19.8219C13.0326 19.7453 13.2817 19.6686 13.4541 19.6686C13.6457 19.6686 13.7989 19.707 13.7989 19.7645C13.7989 19.8219 13.6648 20.1477 13.4732 20.4735C13.3008 20.8185 12.9752 21.336 12.7644 21.6426C12.5345 21.9301 12.1322 22.2559 11.8257 22.3517C11.4809 22.4794 11.3084 22.4794 11.3084 22.3517C11.3084 22.2367 11.615 21.6618 11.9981 21.0485Z" fill="#2F7EFF"/>
<path d="M10.7912 21.1635C11.0019 20.6652 11.3276 20.2244 11.4809 20.1861C11.6533 20.1286 11.8449 20.0903 11.9215 20.0711C12.0173 20.0711 12.0747 20.2052 12.0747 20.3777C12.0747 20.5694 11.7299 21.1826 11.3084 21.7576C10.887 22.3325 10.4464 22.8308 10.3506 22.8691C10.2356 22.9075 10.2165 22.735 10.2739 22.4858C10.3506 22.2559 10.5805 21.6618 10.7912 21.1635Z" fill="#2F7EFF"/>
<path d="M39.221 40.1365C39.3168 39.7915 39.5275 39.5999 39.8532 39.5615C40.1214 39.5232 40.4088 39.619 40.5045 39.7915C40.5812 39.9448 40.6003 40.2706 40.5429 40.5198C40.4854 40.7498 40.2363 40.9989 39.9873 41.0564C39.7574 41.1139 39.4509 41.0564 39.3168 40.9031C39.1507 40.737 39.1188 40.4814 39.221 40.1365Z" fill="#2F7EFF"/>
</svg>
